<svg width="55" height="33" viewBox="0 0 55 33" fill="none" xmlns="http://www.w3.org/2000/svg">
<rect x="0.5" y="0.5" width="54" height="32" rx="3.5" stroke="white"/>
<path d="M25.0081 25.0003C25.7105 25.0003 26.2799 24.4183 26.2799 23.7003C26.2799 22.9824 25.7105 22.4004 25.0081 22.4004C24.3057 22.4004 23.7363 22.9824 23.7363 23.7003C23.7363 24.4183 24.3057 25.0003 25.0081 25.0003Z" fill="white"/>
<path d="M32.7352 25.0003C33.4376 25.0003 34.007 24.4183 34.007 23.7003C34.007 22.9824 33.4376 22.4004 32.7352 22.4004C32.0328 22.4004 31.4634 22.9824 31.4634 23.7003C31.4634 24.4183 32.0328 25.0003 32.7352 25.0003Z" fill="white"/>
<path d="M36.0001 10.6294C35.9509 10.5228 35.9256 10.0935 35.9245 9.98584C35.9256 9.8782 35.9509 9.7707 36.0001 9.66406H24.0371L24.6667 10.6294H30.3334H36.0001Z" fill="white"/>
<path d="M34.4308 14.3116H34.1934L33.4869 17.4892H25.0082L22.425 9.12911C22.3971 9.0404 22.3485 8.95991 22.2836 8.89452C22.2186 8.82913 22.1391 8.78077 22.0519 8.75357L19.7344 8.0256C19.6632 8.00321 19.5883 7.9954 19.5141 8.00259C19.4399 8.00979 19.3678 8.03185 19.3019 8.06753C19.1689 8.13958 19.0693 8.2627 19.025 8.4098C18.9808 8.5569 18.9956 8.71594 19.0661 8.85192C19.1366 8.98789 19.257 9.08968 19.4009 9.13488L21.4302 9.77041L24.0246 18.1478L23.0976 18.922L23.0242 18.9971C22.7949 19.2672 22.6649 19.6106 22.6566 19.9681C22.6484 20.3256 22.7624 20.6749 22.9789 20.9557C23.133 21.1472 23.3288 21.2992 23.5506 21.3995C23.7724 21.4999 24.0141 21.5457 24.2564 21.5335H33.6904C33.8403 21.5335 33.984 21.4726 34.09 21.3643C34.1961 21.2559 34.2556 21.109 34.2556 20.9557C34.2556 20.8025 34.1961 20.6555 34.09 20.5472C33.984 20.4388 33.8403 20.378 33.6904 20.378H24.166C24.1009 20.3757 24.0375 20.3563 23.9818 20.3217C23.9262 20.287 23.8803 20.2383 23.8485 20.1802C23.8166 20.1222 23.8 20.0567 23.8002 19.9901C23.8003 19.9235 23.8173 19.8581 23.8494 19.8002L25.2117 18.6447H33.9391C34.0697 18.648 34.1975 18.6049 34.3005 18.5227C34.4036 18.4405 34.4756 18.3244 34.5043 18.1941L35.3918 14.2018C35.0766 14.2757 34.7542 14.3125 34.4308 14.3116Z" fill="white"/>
</svg>
