<svg width="78" height="78" viewBox="0 0 78 78" fill="none" xmlns="http://www.w3.org/2000/svg">
<circle cx="39" cy="39" r="39" fill="#9FA6EE" fill-opacity="0.1"/>
<g clip-path="url(#clip0_766_8551)">
<path d="M48.1503 37.8877C47.8066 37.9307 47.5488 38.1884 47.5488 38.4891C47.5488 38.7898 47.8066 39.0476 48.1503 39.0476C48.1503 39.0476 49.1383 39.0906 50.8567 40.8089L51.5011 41.4533H48.2362C47.8925 41.4533 47.6347 41.7111 47.6347 42.0548C47.6347 42.3984 47.8925 42.6562 48.2362 42.6562H54.2075L53.3484 41.6681C53.3054 41.6252 53.1336 41.4104 51.6729 39.9927C49.6109 37.9307 48.2791 37.8877 48.1503 37.8877Z" fill="#5661CB"/>
<path d="M57 41.7971L53.3484 38.1456C51.2434 35.7399 48.537 35.3532 46.4749 35.2673V25H21V48.284H23.5346C23.4916 48.5418 23.4916 48.7566 23.4916 49.0143C23.4916 50.9475 25.0811 52.494 26.9714 52.494C28.9045 52.494 30.4511 50.9045 30.4511 49.0143C30.4511 48.7566 30.4081 48.5418 30.4081 48.284H43.0811C43.0382 48.5418 43.0382 48.7566 43.0382 49.0143C43.0382 50.9475 44.6277 52.494 46.5179 52.494C48.4081 52.494 49.9976 50.9045 49.9976 49.0143C49.9976 48.7566 49.9547 48.4988 49.9117 48.284H56.957V41.7971H57ZM26.9714 51.2912C25.6826 51.2912 24.6516 50.2601 24.6516 48.9714C24.6516 48.7136 24.6945 48.4988 24.7804 48.2411C24.9093 47.7685 25.253 47.3389 25.6826 47.0382C26.0692 46.7804 26.4988 46.6086 26.9714 46.6086C27.4439 46.6086 27.9165 46.7375 28.2601 47.0382C28.6897 47.3389 28.9905 47.7685 29.1623 48.2411C29.2052 48.4988 29.2912 48.7136 29.2912 48.9714C29.2912 50.2601 28.2601 51.2912 26.9714 51.2912ZM43.5537 47.0811H29.9356C29.3341 46.136 28.2172 45.4916 27.0143 45.4916C25.8115 45.4916 24.6945 46.136 24.0931 47.0811H22.2029V26.2029H45.315V45.7064C44.5847 45.9642 43.9833 46.4368 43.5537 47.0811ZM46.5179 51.2912C45.2291 51.2912 44.1981 50.2601 44.1981 48.9714C44.1981 48.7136 44.241 48.4988 44.327 48.2411C44.4558 47.7685 44.7995 47.3389 45.2291 47.0382C45.6158 46.7804 46.0453 46.6086 46.5179 46.6086C46.9905 46.6086 47.42 46.7375 47.8067 46.9952C48.2363 47.253 48.537 47.7255 48.7088 48.1981C48.7947 48.4558 48.8377 48.6706 48.8377 48.9284C48.7947 50.2601 47.7637 51.2912 46.5179 51.2912ZM55.7542 47.0811H49.3962C48.7947 46.136 47.7208 45.4916 46.4749 45.4916H46.432V36.4702C49.1384 36.5561 50.9857 37.3294 52.4033 38.9618L55.7112 42.3126V47.0811H55.7542Z" fill="#5661CB"/>
</g>
<defs>
<clipPath id="clip0_766_8551">
<rect width="36" height="27.494" fill="white" transform="translate(21 25)"/>
</clipPath>
</defs>
</svg>
