<svg width="78" height="78" viewBox="0 0 78 78" fill="none" xmlns="http://www.w3.org/2000/svg">
<circle cx="39" cy="39" r="39" fill="#9FA6EE" fill-opacity="0.1"/>
<g clip-path="url(#clip0_766_8579)">
<path d="M41.2266 26.1055V28.3823H43.5034C42.7301 27.5661 41.871 26.7069 41.2266 26.1055Z" fill="#5661CB"/>
<path d="M27.5229 34.3964C27.5229 34.6112 27.7377 34.826 27.9525 34.826H41.3988C41.6136 34.826 41.8284 34.6112 41.8284 34.3964C41.8284 34.1816 41.6136 33.9668 41.3988 33.9668H27.9525C27.7377 33.9668 27.5229 34.1816 27.5229 34.3964ZM41.3988 37.4036H27.9525C27.7377 37.4036 27.5229 37.6183 27.5229 37.8331C27.5229 38.0479 27.7377 38.2627 27.9525 38.2627H41.3988C41.6136 38.2627 41.8284 38.0479 41.8284 37.8331C41.8284 37.6183 41.6566 37.4036 41.3988 37.4036ZM41.3988 40.8403H27.9525C27.7377 40.8403 27.5229 41.0551 27.5229 41.2699C27.5229 41.4847 27.7377 41.6995 27.9525 41.6995H41.3988C41.6136 41.6995 41.8284 41.4847 41.8284 41.2699C41.8284 41.0551 41.6566 40.8403 41.3988 40.8403ZM41.3988 44.2771H27.9525C27.7377 44.2771 27.5229 44.4919 27.5229 44.7067C27.5229 44.9215 27.7377 45.1362 27.9525 45.1362H41.3988C41.6136 45.1362 41.8284 44.9215 41.8284 44.7067C41.8284 44.4489 41.6566 44.2771 41.3988 44.2771Z" fill="#5661CB"/>
<path d="M45.0931 28.2959C42.4726 25.6325 41.5274 24.6874 41.0979 24.3437C41.0119 24.2148 40.8401 24.1289 40.6253 24.1289H24.6014C24.2578 24.1289 24 24.3866 24 24.6874V53.8998C24 54.2434 24.2578 54.5012 24.6014 54.5012H44.7924C45.0931 54.5012 45.3938 54.2434 45.3938 53.8998V28.8544C45.3938 28.7255 45.3508 28.5537 45.222 28.4678C45.179 28.4248 45.136 28.3389 45.0931 28.2959ZM41.2267 26.105C41.8711 26.7064 42.7303 27.6086 43.5036 28.3819H41.2267V26.105ZM44.1909 53.3413H25.1599V25.2888H40.1098V28.9403C40.1098 29.0692 40.1527 29.2411 40.2816 29.327C40.4105 29.4558 40.5394 29.4988 40.6683 29.4988H44.1909V53.3413ZM54.3294 24H48.6587C48.315 24 48.0573 24.2578 48.0573 24.6014V53.8998C48.0573 54.2005 48.315 54.5012 48.6587 54.5012H54.3294C54.6301 54.5012 54.9308 54.2434 54.9308 53.8998V24.6014C54.8878 24.2578 54.6301 24 54.3294 24ZM53.7279 26.6635H52.2673C52.0525 26.6635 51.8377 26.8783 51.8377 27.0931C51.8377 27.3079 52.0525 27.5227 52.2673 27.5227H53.7279V30.1002H52.2673C52.0525 30.1002 51.8377 30.315 51.8377 30.5298C51.8377 30.7446 52.0525 30.9594 52.2673 30.9594H53.7279V33.537H52.2673C52.0525 33.537 51.8377 33.7518 51.8377 33.9666C51.8377 34.1814 52.0525 34.3962 52.2673 34.3962H53.7279V36.9737H52.2673C52.0525 36.9737 51.8377 37.1885 51.8377 37.4033C51.8377 37.6181 52.0525 37.8329 52.2673 37.8329H53.7279V39.9379H52.2673C52.0525 39.9379 51.8377 40.1527 51.8377 40.3675C51.8377 40.5823 52.0525 40.7971 52.2673 40.7971H53.7279V43.3747H52.2673C52.0525 43.3747 51.8377 43.5895 51.8377 43.8043C51.8377 44.0191 52.0525 44.2339 52.2673 44.2339H53.7279V46.8115H52.2673C52.0525 46.8115 51.8377 47.0263 51.8377 47.2411C51.8377 47.4558 52.0525 47.6706 52.2673 47.6706H53.7279V50.2482H52.2673C52.0525 50.2482 51.8377 50.463 51.8377 50.6778C51.8377 50.8926 52.0525 51.1074 52.2673 51.1074H53.7279V53.2983H49.2172V25.1599H53.7279V26.6635Z" fill="#5661CB"/>
</g>
<defs>
<clipPath id="clip0_766_8579">
<rect width="30.8878" height="30.5012" fill="white" transform="translate(24 24)"/>
</clipPath>
</defs>
</svg>
