<svg width="78" height="78" viewBox="0 0 78 78" fill="none" xmlns="http://www.w3.org/2000/svg">
<circle cx="39" cy="39" r="39" fill="#9FA6EE" fill-opacity="0.1"/>
<g clip-path="url(#clip0_766_8558)">
<path d="M53.5682 53.7279C53.4393 53.3842 52.5371 51.2363 51.4632 49.6897C51.0765 49.1313 50.6899 48.6587 50.2603 48.401C49.6589 47.9714 48.6708 47.6706 47.9405 47.4558C47.7687 47.4129 47.6398 47.3699 47.4679 47.327L47.2531 47.1981C46.6517 47.0263 46.6517 47.0263 45.7496 46.7255L45.5348 46.6826C44.3319 46.2959 43.2579 45.9523 42.6994 45.8234V43.3747C43.3438 42.6874 45.7496 39.895 46.308 36.0286C46.351 35.8568 46.351 35.642 46.3939 35.4702C47.0813 35.1265 47.5109 34.6969 47.7257 34.1814C48.1982 33.1074 47.5109 32.1193 47.2102 31.7327C47.1243 30.401 46.7806 28.0382 45.1481 26.2768C43.7734 24.7733 41.7973 24 39.2627 24C37.1577 24 35.4393 24.6444 34.1505 25.9761C32.3462 27.8234 31.8737 30.4439 31.7877 31.7757C31.4441 32.1623 30.7567 33.1074 31.1863 34.1384C31.4011 34.6539 31.8307 35.0835 32.5181 35.4272C32.5181 35.599 32.561 35.8138 32.561 36.0286C32.561 36.1146 32.561 36.2005 32.604 36.2864C33.1195 40.7112 35.1386 42.8162 35.8689 43.3747V45.7804C34.0646 46.2959 28.6517 47.9284 27.6636 48.8735C27.6636 48.8735 27.6636 48.9165 27.6207 48.9165C26.0741 50.463 25.0861 53.8998 25.0431 54.0286C24.9572 54.3294 25.129 54.6301 25.4297 54.673C25.4727 54.716 25.5157 54.716 25.6016 54.716C25.8593 54.716 26.0741 54.5442 26.1171 54.3294C26.1601 54.2864 27.1052 50.9785 28.4369 49.5609C28.6947 49.3031 29.6398 48.8735 30.8426 48.4439V54.4582C30.8426 54.673 31.0145 54.8449 31.2293 54.8449C31.4441 54.8449 31.6159 54.673 31.6159 54.4582V48.1862C31.9596 48.0573 32.3462 47.9284 32.6899 47.7995V54.4582C32.6899 54.673 32.8617 54.8449 33.0765 54.8449C33.3343 54.8449 33.4632 54.673 33.4632 54.4582V47.5847C34.5371 47.2411 35.6541 46.8974 36.5562 46.6826C36.814 46.6396 36.9429 46.4248 36.9429 46.1671V43.1169C36.9429 42.9451 36.857 42.8162 36.6851 42.6874C36.6422 42.6874 34.2364 40.926 33.635 36.1575C33.635 36.0716 33.635 35.9857 33.592 35.8998C35.0527 36.2864 37.0288 36.4582 39.6064 36.4582C42.0121 36.4582 43.9023 36.2864 45.234 35.8998C44.5897 39.852 41.7973 42.7303 41.7543 42.7733C41.6684 42.8592 41.5825 43.031 41.5825 43.1599V46.253C41.5825 46.5107 41.7543 46.6826 41.9691 46.7685C41.9691 46.7685 43.4727 47.2411 45.1481 47.7566V54.5012C45.1481 54.716 45.32 54.8878 45.5348 54.8878C45.7925 54.8878 45.9214 54.716 45.9214 54.5012V47.9284C46.308 48.0573 46.4369 48.1002 46.8665 48.2291L47.0383 48.2721V54.4582C47.0383 54.673 47.2102 54.8449 47.425 54.8449C47.6398 54.8449 47.8116 54.673 47.8116 54.4582V48.5298C48.456 48.7446 49.1863 49.0024 49.6159 49.2601C50.6469 49.9475 52.1076 52.9976 52.5371 54.1146C52.6231 54.2864 52.7949 54.4153 53.0097 54.4153C53.0527 54.4153 53.1386 54.4153 53.2245 54.3723C53.5682 54.3294 53.6971 53.9857 53.5682 53.7279V53.7279ZM32.1314 33.7518C31.8737 33.1504 32.6469 32.3341 32.6469 32.3341C32.7758 32.2053 32.8188 32.0334 32.8188 31.8186C32.9476 30.6158 33.3772 28.253 34.9238 26.6635C35.5252 26.0621 36.2126 25.6325 37.0718 25.3317V27.4368C37.0718 27.6516 37.2436 27.8234 37.4584 27.8234C37.7161 27.8234 37.845 27.6516 37.845 27.4368V25.2029C38.1887 25.1599 38.5324 25.1169 38.919 25.074V28.0382C38.919 28.253 39.0908 28.4248 39.3056 28.4248C39.5634 28.4248 39.6923 28.253 39.6923 28.0382V25.074C40.036 25.074 40.3796 25.1169 40.6803 25.1599V27.4368C40.6803 27.6516 40.8522 27.8234 41.067 27.8234C41.2818 27.8234 41.4536 27.6516 41.4536 27.4368V25.3317C42.6135 25.6325 43.5586 26.1909 44.2889 26.9642C45.7496 28.5537 46.0073 30.7876 46.0503 31.9475H46.0932C46.0932 32.0764 46.1362 32.2053 46.2221 32.3341C46.2651 32.3341 46.9524 33.1074 46.6947 33.7518C46.4799 34.2673 45.3629 35.3842 39.5634 35.3842C33.4632 35.4272 32.3462 34.2673 32.1314 33.7518V33.7518Z" fill="white"/>
<path d="M44.8472 32.6348C44.8042 32.42 44.5894 32.2482 44.3746 32.3341C41.1956 32.9785 37.9307 32.9785 34.7517 32.3771L34.494 32.3341C34.2362 32.2912 34.0644 32.42 34.0214 32.6348C33.9785 32.8926 34.1073 33.0644 34.3221 33.1074L34.5799 33.1503C36.1694 33.4511 37.8018 33.6229 39.4343 33.6229C41.1527 33.6229 42.8281 33.4511 44.5465 33.1074C44.7613 33.0215 44.8901 32.8067 44.8472 32.6348V32.6348Z" fill="#5661CB"/>
</g>
<defs>
<clipPath id="clip0_766_8558">
<rect width="28.611" height="30.8878" fill="white" transform="translate(25 24)"/>
</clipPath>
</defs>
</svg>
