<svg width="78" height="78" viewBox="0 0 78 78" fill="none" xmlns="http://www.w3.org/2000/svg">
<circle cx="39" cy="39" r="39" fill="#9FA6EE" fill-opacity="0.1"/>
<g clip-path="url(#clip0_766_8565)">
<path d="M38.2315 46.4057H25.4726C25.2148 46.4057 25 46.6205 25 46.8782V52.42C25 52.6777 25.2148 52.8925 25.4726 52.8925H38.2745C38.5322 52.8925 38.747 52.6777 38.747 52.4629V46.8782C38.747 46.6205 38.4893 46.4057 38.2315 46.4057ZM37.759 51.9474H25.9451V47.3508H37.8019C37.8019 47.3508 37.8019 51.9474 37.759 51.9474ZM52.7518 46.4057H39.9928C39.7351 46.4057 39.5203 46.6205 39.5203 46.8782V52.42C39.5203 52.6777 39.7351 52.8925 39.9928 52.8925H52.7947C53.0525 52.8925 53.2673 52.6777 53.2673 52.4629V46.8782C53.2673 46.6205 53.0525 46.4057 52.7518 46.4057ZM52.2792 51.9474H40.4654V47.3508H52.3222L52.2792 51.9474ZM32.8186 39.2314C32.5609 39.2314 32.3461 39.4462 32.3461 39.704V45.2458C32.3461 45.5035 32.5609 45.7183 32.8186 45.7183H45.6205C45.8783 45.7183 46.0931 45.5035 46.0931 45.2458V39.704C46.0931 39.4462 45.8783 39.2314 45.6205 39.2314H32.8186ZM33.2912 44.7732V40.1766H45.148L45.1909 44.7732H33.2912Z" fill="#5661CB"/>
<path d="M33.7637 36.7397C34.0214 37.0834 34.4081 37.2982 34.8377 37.2982C35.2673 37.2982 35.6968 37.0404 35.9116 36.6968L37.2434 34.4629L38.0167 34.9354C38.0596 34.9784 38.1455 34.9784 38.1885 34.9784C38.3174 34.9784 38.4033 34.8925 38.4892 34.8066L38.704 34.4199H38.747L44.1169 35.2791L43.7303 35.7946C43.6443 35.8805 43.6014 35.9665 43.6014 36.1813C43.6014 36.3101 43.7303 36.3531 43.8162 36.439L50.0023 40.9498C50.0883 40.9927 50.1742 41.0357 50.3031 41.0357C50.4749 41.0357 50.6038 40.9927 50.6897 40.8638L52.3651 38.544C52.451 38.4581 52.5369 38.2433 52.494 38.1144C52.451 37.9856 52.4081 37.9426 52.3221 37.8567L46.136 33.4319C45.9212 33.303 45.6205 33.3459 45.4916 33.5178L44.8042 34.4629L39.3054 33.6037L39.3914 33.4319C39.4343 33.3459 39.4773 33.2171 39.4343 33.1311C39.3914 33.0452 39.3484 33.0023 39.2625 32.9593L38.4892 32.4438L39.735 30.3817C39.9928 30.0381 39.9928 29.6085 39.8639 29.2218C39.6921 28.8352 39.3914 28.5774 39.0047 28.4486L29.1241 26.0428C28.6515 25.914 28.136 26.0858 27.8782 26.5154C27.5346 26.945 27.5346 27.5035 27.8782 27.933L33.7637 36.7397ZM46.0071 34.4629L51.42 38.4151L50.3031 39.9187L44.8472 35.9665L46.0071 34.4629ZM38.6181 33.3459L38.1026 34.1192L37.5011 33.7326L35.3961 32.4008C35.1813 32.272 35.1384 32.0142 35.2673 31.7994L35.3102 31.7135C35.4391 31.4987 35.6968 31.4557 35.9116 31.5846L38.6181 33.3459ZM28.6085 27.0309C28.6515 26.9879 28.7374 26.945 28.7804 26.945H28.8663L38.704 29.3507C38.7899 29.3507 38.9188 29.4366 38.9618 29.5225C39.0047 29.6085 39.0047 29.7373 38.9188 29.8233L37.673 31.8853L36.2124 30.9402C35.7398 30.6395 35.0954 30.7684 34.7947 31.2409L34.6229 31.4987C34.494 31.7564 34.451 32.0572 34.494 32.272C34.5799 32.5297 34.6658 32.7445 34.9665 32.9163L36.556 33.9044L35.1813 36.1383C35.1384 36.2242 35.0095 36.3101 34.8806 36.3101C34.7517 36.3101 34.6658 36.2672 34.5799 36.1813L28.6085 27.3746C28.5226 27.2887 28.5226 27.1598 28.6085 27.0309ZM35.3961 40.8209L34.3651 41.8519C34.2362 41.9808 34.2362 42.1956 34.3651 42.3245C34.4081 42.3674 34.494 42.4104 34.5799 42.4104C34.6658 42.4104 34.7517 42.4104 34.8377 42.3245L35.8687 41.2934C35.9976 41.1646 35.9976 40.9498 35.8687 40.8209C35.7398 40.692 35.525 40.692 35.3961 40.8209ZM35.3961 42.3674L34.3651 43.3984C34.2362 43.5273 34.2362 43.7421 34.3651 43.871C34.4081 43.914 34.494 43.9569 34.5799 43.9569C34.6658 43.9569 34.7517 43.914 34.8377 43.871L35.8687 42.84C35.9976 42.7111 35.9976 42.4963 35.8687 42.3674C35.7398 42.2385 35.525 42.2385 35.3961 42.3674ZM27.3198 49.6705C27.4057 49.6705 27.4916 49.6705 27.5346 49.6276L28.5656 48.5965C28.6945 48.4677 28.6945 48.2529 28.5656 48.124C28.4367 47.9951 28.2219 47.9951 28.093 48.124L27.105 49.112C26.9761 49.2409 26.9761 49.4557 27.105 49.5846C27.1479 49.6276 27.2338 49.6705 27.3198 49.6705ZM27.3198 51.2171C27.4057 51.2171 27.4916 51.1741 27.5346 51.1311L28.5656 50.1001C28.6945 49.9712 28.6945 49.7564 28.5656 49.6276C28.4367 49.4987 28.2219 49.4987 28.093 49.6276L27.105 50.6586C26.9761 50.7875 26.9761 51.0023 27.105 51.1311C27.1479 51.1741 27.2338 51.2171 27.3198 51.2171ZM41.926 49.6705C42.0119 49.6705 42.0978 49.6705 42.1837 49.5846L43.2147 48.5536C43.3436 48.4247 43.3436 48.2099 43.2147 48.081C43.0859 47.9521 42.8711 47.9521 42.7422 48.081L41.7112 49.112C41.5823 49.2409 41.5823 49.4557 41.7112 49.5846C41.7541 49.6276 41.84 49.6705 41.926 49.6705ZM41.926 51.2171C42.0119 51.2171 42.0978 51.1741 42.1837 51.1311L43.2147 50.1001C43.3436 49.9712 43.3436 49.7564 43.2147 49.6276C43.0859 49.4987 42.8711 49.4987 42.7422 49.6276L41.7112 50.6586C41.5823 50.7875 41.5823 51.0023 41.7112 51.1311C41.7541 51.1741 41.84 51.2171 41.926 51.2171Z" fill="#5661CB"/>
</g>
<defs>
<clipPath id="clip0_766_8565">
<rect width="28.2673" height="26.8926" fill="white" transform="translate(25 26)"/>
</clipPath>
</defs>
</svg>
